<svg xmlns="http://www.w3.org/2000/svg" viewBox="0 0 175.76 53.63"><title>Charvel</title><path class="cls-1" d="M30.49,36.8c-.27-.4-.71,0-.71,0C27.75,39,23,43,18.52,41.49c-4-1.31-5.64-5.53-6.38-8.69a32.35,32.35,0,0,1-.51-7.22c.24-3.69,2.29-13,8.49-13.52,4.45-.39,8.58,3.41,9.93,5.72.43.89.81.37.81.09,0,0-.45-4.31-.63-5.87a46.63,46.63,0,0,0-1.75-8.17,9,9,0,0,0-.61-1.59C27.33,2,20.52-.63,15.81.14,5.89,1.77.65,12.24.29,20.7A70,70,0,0,0,.87,38.05C2,43.85,6,51.42,13.47,53c8.18,1.67,12.22-.21,13.83-1.33.09-.35.48-.81.59-1.2a98.22,98.22,0,0,0,2.6-12.81A2.89,2.89,0,0,0,30.49,36.8Z"/><path class="cls-1" d="M70.08,22.56H60.79A5.38,5.38,0,0,1,57.3,20c-.51-.61-1.1-.93-1.3-.71V34.81c.9.27,1.29-1.73,2.63-1.73h7.55a.5.5,0,0,0,.51-.47V30.82a.47.47,0,0,1,.47-.46h2.92a.5.5,0,0,1,.52.46v1.4a.47.47,0,0,0,.46.46h2.73a.52.52,0,0,0,.47-.51V26C74.26,24.38,72.34,22.56,70.08,22.56Zm.16,5.24H66.69v-.87A1.73,1.73,0,0,1,68.5,25.3a1.67,1.67,0,0,1,1.74,1.58v.92Z"/><path class="cls-1" d="M138.56,30.31h-5.07a.49.49,0,0,1-.49-.47l0,0V24.94h0a.47.47,0,0,0-.47-.45h-7.12a.52.52,0,0,0-.49.51v7.16a.53.53,0,0,0,.46.54h13.19a.53.53,0,0,0,.48-.51V30.76A.46.46,0,0,0,138.56,30.31Z"/><path class="cls-1" d="M123.3,24.11H111.17l0,.08a1,1,0,0,0-.92.54l-4.7,7.32c-.16.54.21.73.47.73h17a.52.52,0,0,0,.48-.51v-1a.53.53,0,0,0-.51-.49h-7.64l.82-1.14h2.93a.47.47,0,0,0,.45-.47V27.72a.58.58,0,0,0-.56-.48h-1.61l.74-1h5.24a.47.47,0,0,0,.43-.51V24.59A.53.53,0,0,0,123.3,24.11Z"/><path class="cls-1" d="M109.22,24.37a.44.44,0,0,0-.45-.43h-2.91a.43.43,0,0,0-.38.22l-2.76,4.26L99.78,24a.49.49,0,0,0-.39-.24H91.94a.43.43,0,0,0-.35.72l4.52,7.94a.43.43,0,0,0,.43.29h7.22a.55.55,0,0,0,.44-.28l4.92-7.76A.43.43,0,0,0,109.22,24.37Z"/><path class="cls-1" d="M175.6,33.34c-2-2-5.86-5.72-8-7.72-.89-.82-1.12-1.54-2.6-1.54h-2.13v0a.49.49,0,0,1-.49-.46V23c0-.25.25-.43.51-.48.91-.22,1.52-.65,1.52-1.15,0-.73-1.3-1.32-2.91-1.32s-2.92.59-2.92,1.32c0,.5.62.93,1.53,1.15.25.05.51.23.51.48v.66h0a.47.47,0,0,1-.46.46h-4.62a.49.49,0,0,1-.51-.46V23c0-.25.25-.43.5-.48.91-.22,1.52-.65,1.52-1.15,0-.73-1.3-1.32-2.91-1.32s-2.91.59-2.91,1.32c0,.5.62.93,1.53,1.15.25.05.5.23.5.48v.49a.47.47,0,0,1-.46.46h-3.94a.48.48,0,0,1-.48-.47v-.76c0-.25.25-.43.51-.48.91-.22,1.52-.65,1.52-1.15,0-.73-1.3-1.32-2.91-1.32s-2.91.59-2.91,1.32c0,.5.62.93,1.52,1.15.25.05.51.23.51.48,0,0,0,.47-.45.47-.59-.17-1.21-.89-1.75-1s-2.08,1-4.62,2.36c-.62.48-.57.83-.22,1.13,1.87,1.4,5,2.23,5.14,2.91s-.41.65-1.65,1.14c-2.38.95-3.38.81-3.51,2.08-.09.85,2.22,1.63,3.32,2.19a3.85,3.85,0,0,1,1.46,1.56.64.64,0,0,0,.83.09c.48-.29.56-.92,1-1a.44.44,0,0,1,.44.43.53.53,0,0,1-.51.49c-.9.22-1.52.65-1.52,1.15,0,.73,1.3,1.32,2.91,1.32s2.91-.59,2.91-1.32c0-.5-.61-.93-1.52-1.15-.26,0-.51-.23-.51-.49v-.57h0a.46.46,0,0,1,.45-.47h3.91a.49.49,0,0,1,.52.44v.25a.56.56,0,0,1-.5.49c-.91.22-1.53.65-1.53,1.15,0,.73,1.3,1.32,2.91,1.32s2.91-.59,2.91-1.32c0-.5-.61-.93-1.52-1.15a.56.56,0,0,1-.5-.49v-.06a.47.47,0,0,1,.46-.47l4.67.22a.47.47,0,0,1,.46.47c0,.25-.26.43-.51.48-.91.22-1.53.65-1.53,1.15,0,.73,1.32,1.32,2.92,1.32s2.91-.59,2.91-1.32c0-.5-.61-.93-1.52-1.15-.26,0-.51-.23-.51-.48a.47.47,0,0,1,.46-.47H175a.64.64,0,0,0,.55-.15A.65.65,0,0,0,175.6,33.34Zm-27.77-.7a.58.58,0,1,1,.58-.58A.58.58,0,0,1,147.83,32.64Zm0-5.87a.58.58,0,1,1,.58-.58A.58.58,0,0,1,147.83,26.77Zm6.65,5.87h0a.57.57,0,0,1-.59-.57h0a.58.58,0,0,1,.58-.6.6.6,0,0,1,.6.58A.59.59,0,0,1,154.48,32.64Zm0-5.87h0a.57.57,0,0,1-.59-.57h0a.58.58,0,0,1,.58-.6.6.6,0,0,1,.6.58A.59.59,0,0,1,154.48,26.77Zm7.11-1.17a.59.59,0,1,1-.59.59A.58.58,0,0,1,161.59,25.6Zm0,7a.58.58,0,1,1,0-1.16.58.58,0,1,1,0,1.16Z"/><path class="cls-1" d="M90,29.19c-.24-.14-.22-.32-.1-.44A3,3,0,0,0,91,26.08a3.41,3.41,0,0,0-2.86-2.94H74.55a.34.34,0,0,0-.27.13.33.33,0,0,0,0,.45.24.24,0,0,0,.16.07c.58.25,1,.54,1,1v7.45a.47.47,0,0,0,.46.46h6.62a.53.53,0,0,0,.48-.51V30.34h2.22c1.14.78,2.71,2.36,3.2,2.36H93.2a.47.47,0,0,0,.45-.47.56.56,0,0,0-.12-.3C92.42,31,90.68,29.86,90,29.19ZM85.66,28H83V26.58a1.36,1.36,0,0,1,2.66,0Z"/><path class="cls-1" d="M54.88,36.48V17a4.46,4.46,0,0,1,2.69-3.48,9.36,9.36,0,0,1,3.57-.39,2.2,2.2,0,0,0,2-2.32C63.14,9.48,61.58,8.38,60,8A11.09,11.09,0,0,0,55,8a17.78,17.78,0,0,0-4.8,1.78c-1.91.93-2.29,1.53-4.86,2.3l0,0c-.37.17-1.06.44-.82,1A4,4,0,0,1,45.69,16v5.28c-.26,1.64-1.12,1.49-1.93,1.48h-.82c-.81,0-1.66.16-1.93-1.48V15.5a4.07,4.07,0,0,1,1.25-2.9c.25-.59-.17-.73-.91-.94a9,9,0,0,1-2.52-1.57c-2.6-2.6-5.64-5.26-8.28-6.42a119.75,119.75,0,0,1,2.3,13.15,78.61,78.61,0,0,1,0,18.14,85.6,85.6,0,0,1-2,12c-.32,1.43-.51,2.19-.89,3.65,0,0,.55-.14.89-.25a11.88,11.88,0,0,0,4-2.38c2.43-2,4.14-4.54,6.45-5.65.37-.17,1-.45.71-1a4.3,4.3,0,0,1-1.55-2.9V34c.26-1.64,1.13-1.49,1.94-1.48h1.43c.81,0,1.67-.16,1.93,1.48v4.43a4.35,4.35,0,0,1-1.54,2.9c-.25.58.15.72.9.93a21.58,21.58,0,0,1,2.79,1c2.52.89,4.39,2.29,6.45,2.29a4.4,4.4,0,0,0,4.34-4.08,3.11,3.11,0,0,0-1-2.84C57.49,38.49,54.88,37.55,54.88,36.48Z"/></svg>
