<svg xmlns="http://www.w3.org/2000/svg" viewBox="0 0 546.56 246.83"><title>Cort</title><path d="M91.46,50.84l-25.8,86.5s15.2,9.9,44.8,9.9c0,0,54.6,0,81.9-31.1,0,0,15.9-15.9,17.4-57.7,0,0,2.3-55.4-67.5-58.4,0,0-53.9-3.8-107,63.7,0,0-39.4,50.1-34.9,103.9,0,0,1.5,80.4,83.4,78.9,0,0,50.1,6.1,85-37.9,0,0,15.9-22.8,24.3-37.9,0,0,1.5,70.5,47.8,72.8,0,0,40.2,6.8,68.3-47.8,0,0,25-39.4,4.6-86.5,0,0-3.8-14.4-28.1-6.8,0,0-25,6.8-47.8,37.2,0,0-6.1,11.4,3.8,15.9,0,0,3.8,0,7.6-4.6,0,0,9.9-15.9,22-20.5,0,0,17.4-7.6,22,17.4,0,0,2.3,25-14.4,39.4,0,0-9.1,17.4-29.6,15.2,0,0-22.8-6.8-23.5-39.4,0,0-2.3-29.6,25.8-53.9,0,0,4.6-3.8-.8-4.6,0,0-12.1-6.8-37.2,15.9,0,0-12.1,19-15.2,28.1,0,0-12.9,3-19,10.6,0,0-24.3,31.9-75.1,34.1,0,0-63.7.8-64.5-73.6,0,0,.8-41.7,50.1-81.9,0,0,23.5-19.7,50.1-12.1,0,0,27.3,3,19,40.2,0,0-7.6,25.8-32.6,24.3,0,.1-27.3,5.4-34.9-39.3"/><path d="M331.16,135.74s6.8-40.2,37.9-41.7c0,0,14.4,0,22.8,22.8,0,0,.8,6.1,6.1,0,0,0,13.3-21.1,28.1-22.2,0,0,19.9-1.7,17.1,22.2,0,0-2.8,23.9-27.9,35.8,0,0-10.8,4-7.4-5.1,0,0,4-7.4,1.7-15.4,0,0-2.3-6.3-11.9,0,0,0-27.9,17.1-31.3,107.5,0,0-30.7-4-55.8,1.1,0,0,31.9-54,37.5-102.4,0,0,4-14.2-9.1-6.8,0,.1-5.3,6.1-7.8,4.2"/><path d="M546.56,16.64l-50,15.4-17.1,54.6s-22.2-1.7-26.7,35.8c0,0,9.1-9.7,15.4-8.5,0,0,6.3-2.3,0,9.7,0,0-22.8,65.4-21.1,88.2,0,0,1.1,22.8,21.6,25,0,0,26.7,2.8,41.5-47.2,0,0,0-2.3-2.8,1.7,0,0-7.4,10.2-12,8.5,0,0-10.8,4-6.3-24.5l19.3-57.2h21.1l14.2-31.6h-23.3Z"/></svg>
