<svg xmlns="http://www.w3.org/2000/svg" viewBox="0 0 142.43 60.92"><title>ESP</title><path id="path14458" d="M22,.06H43V25.15Z"/><path id="path14462" d="M36,16.8V42.3l-8-5.76h-5.4V23H28Z"/><path id="path14466" d="M43,33.36h0V60.88l-21,0Z"/><path id="path14470" d="M47.44,29.91v31l23.49,0Z"/><path id="path14474" d="M64.69,0h23l0,29.26Z"/><path id="path14478" d="M92.06,0l0,60.83,22.76,0,0-60.82Z"/><path id="path14482" d="M118.13,0l0,35.59h7c11.28,0,17.28-8,17.27-17.75S136.66,0,125.14,0h-7"/><path id="path14486" d="M72.23,60.86h3.82c14.11,0,16.26-15.94,12.23-21.84C85.71,35.29,65.2,8.76,62.9,5.63A3.93,3.93,0,0,1,63.54,0H59.8C45.68.06,43.53,16.08,47.57,22c2.55,3.74,22.82,30.46,25.37,33.4,2.88,3.3-.71,5.48-.71,5.48"/><path id="path14490" d="M21.19,60.9V.08L0,.1,0,60.92Z"/></svg>
