<svg xmlns="http://www.w3.org/2000/svg" viewBox="0 0 1016.86 383.1"><title>Fender</title><path id="path2582" d="M795.3,0c-6.14,0-12.67,1.68-16.61,4.31-10.12,6.75-47.27,122.32-62.76,181.7,0,0-3.35,12.37-7.79,40.81-.72,4.62-3.08,22.71-4.1,28.31-3.86,21-18.85,32.2-31.79,29.73-16.17-3.08-18.48-27.06-14.15-44.91,4.74-19.56,20.83-41.66,39.37-36.3,8.94,2.08,13.56,1,14.15-4.92.77-7.7-8.4-12.31-8.4-12.31-35.56-17.89-67.32,11.38-75.47,52.71-9.53,48.23,20.27,86.57,68.7,59.06,15.16-8.6,14.34,11.5,48.4,10.26,24.76-2.41,38.9-20.71,26-30.76-8.4-6.59-14.07,6.31-28.09,4.51-29.95-3.85,3.57-90.8,20.92-145C778.52,91,795,57.78,809,20.3,814.69,5.24,805.53.07,795.3,0Zm-541,9.84C202.88,11.21,107.46,60.27,35.46,117.1,5.93,142.77-11.07,148.87,8.18,169.4c17.11,17.11,28.1,4.1,28.1,4.1,16.26-12.84,51.34-48.72,74.45-65.83C143.62,83.3,189,48.17,229.26,38.76c31.92-8.09,41.61,1.32,37.33,33.84-2.52,27.91-24,90.65-24,90.65s-33,14.79-42.86,18.46c-7.68,2.85-15.72.91-16.61,18.45-.39,18.82,11,11.73,18.66,8.82,5.91-2.25,19.84-8.92,25-11.07,3.85-3,8.09-.44,5.95,5.13-3.85,12.41-10.83,32.62-24,61.73-16.69,39.79-46.61,94.17-50.46,107.87.43,9,10.22,10.27,23.18,10.46a23.73,23.73,0,0,0,17.43-9.23s15.53-33.4,39.38-92.08C255.61,239.16,267,204,271.72,188.06c2.56-9.41,8.1-11.41,15.38-13.12,10.88-3.57,26.14-8.36,35.48-10.05C346.17,159.06,353,160.32,356,144c2.12-11.37-2.87-16.61-2.87-16.61s-51.41,16-61.73,18.87c-9,3.84-7.39-5.54-7.39-5.54s-1.25,5.93,4.31-18.46C305.2,48,295.38,28.29,282,17,275.61,11.76,266.15,9.53,254.28,9.84ZM951.37,141.51c-8.82-.38-29,14.59-21.12,52.71-10.7,40.21-92.3,110.39-103.16,82-2.65-6.91,4.49-18.26,23.17-22.15,30.81-6.42,28.23-25.58,13.54-27.48-23.1-3-29.48-3-57-9.43C795.92,216,796.24,201.6,809,201.8c5.29-.21,18.5,1.61,46.76,2.67,29.57,1.11,35.43-21.89,34.25-36.09-30.18,6.51-37.33,8.2-63.37,8.2-27.32,0-61.12,7.55-61.73,31.58-.62,23.88,30.73,29.27,47,33.84,4.5,1.08,6.07,4.82,3.08,7.18-6.94,5.54-22.55,12.78-24.41,25.84-2.64,18.49,14.15,33.06,35.48,32.61,28.4-.59,59.9-12.64,90-48.81,8.52-10.22,18.11-27.47,24-35.07,1.41-2.74,5.38-4.1,7.18-3.9,5.38,1.19,13.12,5.23,12.1,11.08-1.57,8.95-26.07,36.93-9.85,53.73,10,10.32,35.18,17.62,55.17,3.08,18.71-13.61,12.13-26,4.72-26.87-5.3-.64-20.21,18-32.2,4.72-10-11,13.76-33.72,18.46-41.84C1002.45,212,976,203,964.91,188.47c-7.18-9.56,11.42-38.77-11.9-46.55A6.16,6.16,0,0,0,951.37,141.51Zm-512.1,30.15c-25.1,7.48-37.82,6.56-64.4,6.56-27.89,0-65.59,3.89-64,30.76,1.35,22.6,33.19,28.91,49.63,30.77,4.71-.44,6.09,4,2.67,6.35-7.42,7.52-15.89,17.85-17,26.25-2.48,18.2,6.84,34.24,29.95,33.84,24.81-.42,32.94-18.44,74.44-43.68,11.58-7,26.06-18.94,32-19.89,2.29,0,5.55.74,5.34,5.12-3.51,16.57-7.35,27.72-3.08,41.84,3,9.94,16.15,16.2,25.64,9,15.82-12,16-19,36.5-45.93,3.4-4.47,16-24.88,21.74-22.15,4.78,2.25,3.35,8.92,2.46,14.15-4.31,25.26-15.27,65.22,34.66,59.06,11.87-1.46,21.53-9.55,12.51-18.05-5.45-5.14-11.61-1.49-18.46-3.07-16-3.69,23.63-76.69,4.72-90.24-26.59-19.05-51.24,14.72-69.73,39.38-7.29,9.72-12.7,5.48-17.43-8.21-5.28-15.22-36.81-4-55,5.34-29,14.93-82.59,64.92-87.58,40-.86-4.31,6.26-13.93,19.28-18.67,15.27-5.55,32.41-10.5,32.41-19.68,0-7.11-4.24-12.15-8.82-11.9-21.31,1.18-46.1,6.77-74.45-1-6.46,0-9.29-16.27,9.85-14.15,5.07.56,16.39,1.4,59.27,2.25C442.61,206.31,443.32,183.67,439.27,171.66Z"/></svg>
