<svg xmlns="http://www.w3.org/2000/svg" viewBox="0 0 298.24 187.68"><title>Gibson</title><path d="M70.06,45a9.73,9.73,0,1,0-9.73-9.72A9.72,9.72,0,0,0,70.06,45"/><path d="M53.92,57V36.24c0-7-7-13.47-12.38-11.86S13.63,32.9,12.7,33.32,0,38.29,0,51.18L.18,135s.51,8.43,9.27,8.26c0,0,2.57,0,6.68-2.24,0,0,10.15-5.55,10.83-5.85s6.17-2,6.35,5.5v47.05L50,182.35V140.63c0-2.84,2-16.86,9.27-22.65.45-.38,3.94-2.63,7,1.53s5.85,4.81,5.85,4.81,3.36,1.48,6.35-3.6c.18-.36,5.43-9,5.67-9.44s1-1.56,3.25-1.37c0,0,5.51-.36,4.65,7.37,0,0,25.53-7.75,27.64-8.93.33-.13,10.08-4,16-13,0,0,1.76-2.59,4-2.4.39,0,5.82.34,4.27,7.55,0,0,24.75-7.57,26.13-8.24,2.92-1.2,10.64-4.41,10.47-13.38A13.62,13.62,0,0,0,176,68.17c-.21-.21-17-12.6-17.18-12.71-1.46-1.24-2.2-4.05.18-7,0,0,1.88-2.74,4.65-2.58,0,0,2.09-.09,5.31,4.13.42.42,2.81,3.61,4.48,3.94,0,0,1.37.45,3.07-1.2,4.17-3.62,6.35-3.77,6.35-3.77s6-1.72,6,5.14V68.53c0,3.15,4.14,12.81,13.57,12.35a43.8,43.8,0,0,0,6.35-1.21l10.11-3.24s12.73-3.83,17.18-12c0,0,2.11-4.11,5.16-4.11,0,0,5.3-.69,4.8,7.38l14.43-4.81V28s-.41-4.12,4.45-4.12,4.65,3.77,4.65,3.77V99.77a8.89,8.89,0,0,0,9.09,8.24s19.57-.17,19.57-16.84V84.83l-5,1.71v6s.33,4.06-4.29,4.28c-.42.09-5-.07-4.81-4.47V4.13S283.81,0,279.69,0c0,0-3.76-.33-6.68,4.83s-4,9.08-7.9,9.08c0,0-4.69.56-4.63-3.6V5.84l-14.79,4.82v17c0,4.22-3.16,25.16-8.74,25.24-.39.06-5.63.79-5.84-4.47V28.68c.14-2.66-1.94-10.62-8.59-9.78l-6,1.2V62.86c0,1.31-.48,7.61-7.57,7.89-.63.1-7.55-.18-7.55-6.86V36.08s-.33-5,4.65-5.33l.15-7.21S191.11,27,184.07,39.68a6.11,6.11,0,0,1-3.78,1.71c-.72,0-4.12-.21-4.3-3.61V33.15l-24.9,8.24s-9.78,3.09-9.78,13.06c0,0,0,6.87,4.29,10.11L163,77.63a4.78,4.78,0,0,1,1.52,5.66c-.18.6-2.21,4.71-6.36,4.81-.8.09-3.43,0-5-4,0,0-1.37-5.14-5.81-3.61,0,0-8.35,2.93-9,3.1s-5.49,1-5.49-4.8V59.59c0-1.43-1.76-9.57-8.58-9.27a25.72,25.72,0,0,0-7.37,1.9v8.4s4.62-.69,4.62,5.32V95s.21,7.24-7.36,7.37c-6.36-.07-7.4-6.13-7.4-6.87-.06-4.1.18-92.54.18-92.54L91.86,8.77,92,72.13s-.93,20.56-6.71,28.5c-1.67,2.27-7.55,2.27-8.06-2.76V65.26L62.51,69.89V83.11c0,2.21-2.06,28.45-9.6,28.07-1,0-3-1-3-5.54l.09-32L35.55,78.83s-.15,17.56-.18,18.54c-.45,5.63.36,31.08-16.49,31.08,0,0-4.12.17-4.12-4.81V52.55s.48-8,6.71-10.83c0,0,6.36-2.27,7.73-2.74a5.37,5.37,0,0,1,6.53,5.67v18L53.92,57"/></svg>
