<svg xmlns="http://www.w3.org/2000/svg" viewBox="0 0 584.16 120.9"><title>Gretsch</title><path d="M63.36,58.8l-5.2,9.6h11.4l-25.8,42.5H29.86c-7,0-2.3-7.5-2.3-7.5s49.5-84.1,52.3-88.2c3.2-4.9,7.8-4.6,7.8-4.6h42.1L136.26.1H79.86c-18.3,0-25,12.7-25,12.7L3.56,101.3c-9,14.3,1.9,19.5,2.1,19.6h57.7l36.3-62.1Z"/><path d="M172.16,66.8s8.5-1.4,11.3-6.2L195.66,39c7.1-12.9-2.5-15.2-8.2-15.2h-39.6c-5,0-6.9,3.3-6.9,3.3l-53.5,93.8h23l30.9-52.5h7.4c6.1,0,4,4,4,4s-17.6,33.1-20.7,38.4c-3.7,6.4,0,10.1,0,10.1h22.4c-2.6-3.4,1.4-10,1.4-10s10.7-19.4,15.5-28.3c3.8-6.9.9-11.4-.3-12.6C170.06,69,169.16,67.3,172.16,66.8Zm-14.3-8h-10.6l14.8-26.3h7.3c6.1-.1,4,4,4,4s-3.9,7.7-8.3,15.5C161.26,58.8,157.86,58.8,157.86,58.8Z"/><path d="M228.86,68.2h22.7l6-9.6h-23.7l14.8-26.3h23.7l4.7-8.6h-42.7c-5.2,0-6.9,3.3-6.9,3.3l-52.3,93.8h49l5.6-10.1h-24.2Z"/><polygon points="494.76 10.6 500.76 0 157.46 0 151.26 10.6 304.76 10.6 244.46 120.8 267.36 120.8 327.96 10.6 494.76 10.6"/><path d="M365,58.7h-17.8L362,32.4h5.8c5.25,0,4.42,3,4.09,3.78L365.36,47.6h22.4l5.3-8.7c7.1-12.9-3.9-15.2-8.2-15.2h-34.6a13,13,0,0,0-10.5,5.2l-14.3,24.2c-7.1,12.9,3.9,15.2,8.2,15.2h17.5l-23.5,42.5h-5.8c-5.27,0-4.43-3-4.1-3.79L326,92.4h-22.4l-7.7,13.2c-7.1,12.9,3.9,15.2,8.2,15.2h34.6a12.9,12.9,0,0,0,10.4-5.1l12.8-21.9,11.3-19.9C380.26,61,369.26,58.7,365,58.7Z"/><path d="M446.16,47.7h20.5L472,39c7.1-12.9-3.9-15.2-8.2-15.2h-32.7a12.9,12.9,0,0,0-10.4,5.1l-45.2,76.7c-7.1,12.9,3.9,15.2,8.2,15.2h34.6a12.9,12.9,0,0,0,10.4-5.1l13.5-23.2h-21.5l-10.9,18.4h-8.3c-6.1,0-4.2-3.6-4.2-3.6l43.6-74.8h7.7c5.25,0,4.42,3,4.09,3.79Z"/><polygon points="559.66 0 526.56 56.1 510.16 56.1 543.46 0 518.96 0 448.76 120.8 472.76 120.8 504.36 65.9 520.86 65.9 489.46 120.8 513.46 120.8 584.16 0 559.66 0"/></svg>
