<svg xmlns="http://www.w3.org/2000/svg" viewBox="0 0 180.63 62.77"><title>Harley Benton</title><path d="M61.94,38c1.2-1.09,1.29-2.56,1.43-4a2.53,2.53,0,0,0-.12.23c-.45,1-.89,1.92-1.33,2.88A1.09,1.09,0,0,0,61.94,38Zm22-2.51s0,.06-2.76,4.17l-.17.25a1.3,1.3,0,0,1-.1.15c-.89,1.31-1.77,2.63-2.61,4-.35.52-.7,1-1.06,1.53-.67.93-1.26,1.91-1.85,2.89a32.63,32.63,0,0,0-1.68,2.87l-.21.47a13.63,13.63,0,0,0-1.09,2.61c-.71,2.32-1.67,5.44-2,6.43-.27.74-.33,1.36-1.13,1.76A2.32,2.32,0,0,1,67,62.35a1.66,1.66,0,0,1-.76-1.22,3.67,3.67,0,0,1,.47-1.56c.3-.74.64-1.47,1-2.19.76-1.63,1.56-3.23,2.36-4.84a15.36,15.36,0,0,0,.74-1.72l.52-1.27c1.5-4,2.54-8.18,4-12.22a.94.94,0,0,0,.06-.3c-.29.46-.58.92-.89,1.36-.8,1.17-1.59,2.34-2.42,3.48a10.49,10.49,0,0,1-1.22,1.36,2.13,2.13,0,0,1-.74.42,1.27,1.27,0,0,1-1.63-.88,4.63,4.63,0,0,1-.09-2.06c.05-.4.09-.81.15-1.25a1.58,1.58,0,0,0-.14.16c-1,1.25-1.91,2.54-2.92,3.76a9.62,9.62,0,0,1-3,2.53,3.14,3.14,0,0,1-2,.39,2.38,2.38,0,0,1-1.78-1.38,7.5,7.5,0,0,1-.6-3.74c0-.85.11-1.71.17-2.59l-.14.14a52.41,52.41,0,0,1-5.84,6c-.52.34-1.48.31-1.41-.86.09-4,1.94-11.78,2-11.87l.07-.28s-.05,0-.05,0a8.26,8.26,0,0,1-.52.68c-.19.25-.38.49-.58.72-.38.44-.75.89-1.16,1.3-3.82,3.84-5.52,1.37-4.68-.26.12-.24.48-.75.47-.74l0,0-1.13,1.19s-.94,1-1,1.08l-.6.73a49.61,49.61,0,0,0-4.15,6.58,7.25,7.25,0,0,1-.58,1,1.44,1.44,0,0,1-.42.41,1,1,0,0,1-1.26-.43,2.59,2.59,0,0,1,0-1.31c.09-.55.18-1.16.25-1.6.11-.7.24-1.4.36-2.1s.39-1.69.55-2.56v0c-.05.07-.1.14-.14.21-.68,1.14-1.49,2.17-2.17,3.48,0,.08-.64,1.19-.78,1.52s-.38.76-.57,1.22a10.6,10.6,0,0,1-.62,1.21.83.83,0,0,1-.79.48c-1.05-.09-1.23-2.16-1.27-2.92a5,5,0,0,1-.33.55,13,13,0,0,1-1.09,1.36,12.1,12.1,0,0,1-1.24,1.24c-.51.42-1.36.95-2,.52-1.1-.7-1.12-2.91-1.12-3.06h0a8.21,8.21,0,0,1,.15-1.85,28.76,28.76,0,0,1,2-6.59c0-.09.07-.19.14-.35l-1.78.64c-1.26.46-2.52.92-3.79,1.36a.54.54,0,0,0-.34.35C19.63,45,17,53,14,62.11a.81.81,0,0,1-.81.64.77.77,0,0,1-.73-1c.35-1.29.36-1.37.72-2.66l6-21.94c0-.08,0-.15.06-.26a1.79,1.79,0,0,0-.32.09L6.75,41.33a.52.52,0,0,0-.35.38L2.89,51.9a1.46,1.46,0,0,1-.07.19.84.84,0,0,1-1.6-.51c.3-1.16.62-2.31.93-3.47l1.47-5.42c0-.07,0-.14,0-.25l-.29.09c-.63.22-1.27.42-1.9.68A1.06,1.06,0,0,1,.07,42.6a1,1,0,0,1,.64-1.37c1.17-.52,2.33-1,3.5-1.54a.53.53,0,0,0,.35-.39q4-14.82,8-29.64a2.39,2.39,0,0,1,2.36-1.91A2.25,2.25,0,0,1,17,10.68c-.44,1.44-1,2.85-1.44,4.26Q11.65,26.42,7.72,37.88c0,.08-.06.16-.1.29a1.31,1.31,0,0,0,.26-.09l12.39-5.51a.53.53,0,0,0,.31-.38q4-14.62,8.08-29.23c.11-.4.23-.79.33-1.19A2.26,2.26,0,0,1,31.71.06a2.31,2.31,0,0,1,1.66,3q-4.47,13.64-9,27.28l-.11.39c.69-.32,1.33-.6,2-.9l6.6-3.13a2.34,2.34,0,0,1,2.61.28,2.41,2.41,0,0,1-1,4.22,3.42,3.42,0,0,0-1.72,1.16,18.48,18.48,0,0,0-4,7.14,9.54,9.54,0,0,0-.53,2.6v.27s0,.07.08,0a4.68,4.68,0,0,0,.94-1,16.41,16.41,0,0,0,2.58-5.69c.11-.38.2-1.09.3-1.47A1.61,1.61,0,0,1,34,33a1.86,1.86,0,0,1,1.65,2.5,2.05,2.05,0,0,0,0,.51l.17-.21c.76-1,1.77-2.21,2.48-3.23.36-.63.65-1.3,1-1.95s.69-1.45,1-2.18c0-.1.11-.21.16-.32v0a12.25,12.25,0,0,1,1.33-2.58,1.83,1.83,0,0,1,2.09-.37,1.86,1.86,0,0,1,1.11,1.49,3.36,3.36,0,0,1-.4,1.5c-.46,1.28-.92,2.56-1.42,3.82l-.12.33.94-1.08c.61-.78,1.21-1.59,1.85-2.3.1-.11.69-.76.87-.92a1.65,1.65,0,0,1,.8-.4,1.68,1.68,0,0,1,1.46.4,1.55,1.55,0,0,1,.55,1,2.33,2.33,0,0,1-.23,1.47c-.17.3-.57,1-.85,1.46,0,0-1.73,2.54-1.17,2.9.14.09.59-.07,1.05-.42a6.31,6.31,0,0,0,1-.95c.3-.35,1.87-2.17,2.39-2.91,0,0,2.37-3.41,2.44-3.56s2.34-7.11,3.11-8.76c0,0,2.61-6.85,5.81-6.3a2,2,0,0,1,.91.38c1.15.89.5,2.91-.13,4.2-.07.13-.16.3-.22.43-.3.55-.57,1-.89,1.57l-1.08,1.83c-.4.7-.81,1.38-1.22,2.07-.79,1.3-1.61,2.59-2.38,3.9a20,20,0,0,0-1.26,2.43c-.16.39-.31.79-.44,1.19-.29.84-.53,1.69-.77,2.51-.32,1.09-.56,2.19-.83,3.29-.22.9-.47,1.81-.64,2.73-.08.43-.13.86-.19,1.29,0,.24-.08.52-.11.75s-.09.6-.09.6a1,1,0,0,0,.17-.13,56.85,56.85,0,0,0,4.9-5.72,2.19,2.19,0,0,0,.32-.65,16.71,16.71,0,0,1,2.19-4.85,5.1,5.1,0,0,1,1.9-1.73,2.84,2.84,0,0,1,4.27,2.19,7,7,0,0,1-.32,3.14,14.93,14.93,0,0,1-2.6,5.25,5,5,0,0,1-1.73,1.37,1.94,1.94,0,0,1-1.53.08L61,39.89a7.63,7.63,0,0,0-.31,3.9.37.37,0,0,0,.54.3,4.61,4.61,0,0,0,1.11-.61A14.09,14.09,0,0,0,65,40.77,37.16,37.16,0,0,0,69.47,34a11.76,11.76,0,0,0,.84-2.51c.06-.3.13-.67.2-1A2,2,0,0,1,73,29.14a1.93,1.93,0,0,1,1.35,2.47,8.29,8.29,0,0,1-.55,1.12,51.65,51.65,0,0,0-3,6.83,8.54,8.54,0,0,0-.36,1.55c.41-.48.84-1,1.23-1.45a82.53,82.53,0,0,0,5.55-8.41c.34-.56.63-1.14,1-1.71a.82.82,0,0,1,1.08-.42.83.83,0,0,1,.41,1.11q-1.43,4.64-2.86,9.26l-1,3.3c0,.05,0,.11,0,.22l.13-.11q1.11-1.53,2.25-3.06a.08.08,0,0,1,0,0c.12-.15.23-.3.34-.46.64-.87,1.27-1.71,1.9-2.6.76-1.09,2-2.8,2-2.87a1.09,1.09,0,0,1,.94-.25.91.91,0,0,1,.73.62A1.48,1.48,0,0,1,83.92,35.46Zm76.77.5a1.24,1.24,0,0,0-.43-.67,3.46,3.46,0,0,1-.63-1l-.07.1c-2.95,4-3,7.56-2.67,7.9a.4.4,0,0,0,.34.07C158.28,42.25,160,40.66,160.69,36Zm-33.4,1.92c1.2-1.09,1.28-2.57,1.44-4,0,.08-.1.16-.14.24-.43.94-.85,1.88-1.29,2.8A1.2,1.2,0,0,0,127.29,37.88Zm53.33.79a2.26,2.26,0,0,1-.18.74,8.36,8.36,0,0,1-2.37,2.72l-1,.82c-.3.26-1.8,1.43-1.87,1.49-.51.43-.55.52-.95.6a1.17,1.17,0,0,1-.69-.09,1.5,1.5,0,0,1-.75-1.58L173,42s.08-1.17.13-2.49a18.9,18.9,0,0,0-.09-3.29,3.83,3.83,0,0,0-.15-.66l0,0c-.2.21-.35.36-.49.52l-.75.8s-3.56,3.64-5.06,5.49c0,0-1.3,1.62-2,2.7a3.31,3.31,0,0,1-.41.46,1.3,1.3,0,0,1-.44.26,1.2,1.2,0,0,1-1.12-.34,1.29,1.29,0,0,1-.07-1.42s.36-.8.69-1.5,1.63-4.16,1.83-4.72.52-1.51.5-1.46a1.1,1.1,0,0,1-.4.38,2.8,2.8,0,0,1-2.34.19c-.33,1-.66,1.93-.66,1.93s-.23.69-.27.78a13.62,13.62,0,0,1-3.13,5,3.06,3.06,0,0,1-2.77.86,2,2,0,0,1-1.44-1.46,4.75,4.75,0,0,1,0-2.14l0-.08c-.32.54-.4.71-.73,1.23-.89,1.37-1.76,2.76-2.72,4.08a7.07,7.07,0,0,1-1.57,1.66,3,3,0,0,1-1.35.55,1.26,1.26,0,0,1-1.45-.92,6.86,6.86,0,0,1-.26-1.66,29.12,29.12,0,0,1,.49-5.18l.7-4.4-.23.35c-.41.78-.34.66-1.24,2.41-.79,1.5-1.39,3.06-2.3,4.5a3.28,3.28,0,0,1-.85,1,1.32,1.32,0,0,1-.93.08c-.39-.12-.84-.49-.71-1.8,0-.41.11-.92.17-1.32a32.81,32.81,0,0,0,.18-3.29,16,16,0,0,0-.13-3.09,2.71,2.71,0,0,0-.13-.44l-.19.17c-2.11,2.17-4.23,4.33-6.16,6.65-.49.59-1,1.18-1.4,1.8l-.69,1c-.63.88-1.45.77-1.88.24-.3-.37-.2-.9.06-1.49.19-.41.69-1.68.81-2.06-.2.24-.41.47-.6.72a13.75,13.75,0,0,1-3.13,3,3.46,3.46,0,0,1-2.51.65A2.39,2.39,0,0,1,124,44.85a5.43,5.43,0,0,1-.58-2.34,23.76,23.76,0,0,1,.66-6.72,19,19,0,0,1,2.09-5.56A6.34,6.34,0,0,1,128,28.15a3.13,3.13,0,0,1,2.73-.58,2.84,2.84,0,0,1,2.06,2.48,6.44,6.44,0,0,1-.32,3.11,14.76,14.76,0,0,1-2.61,5.28,4.78,4.78,0,0,1-1.73,1.36,1.9,1.9,0,0,1-1.53.07l-.27-.07a8.33,8.33,0,0,0-.39,3.6c.11.67.36.79,1,.47a9,9,0,0,0,2.54-2.13,39.52,39.52,0,0,0,5.08-7.34,10.3,10.3,0,0,0,.7-2.16c.27-1,.49-2,.76-3a2,2,0,0,1,2.24-1.43A2.07,2.07,0,0,1,140,30a3.33,3.33,0,0,1-.32,1.06c-.56,1.18-1.16,2.36-1.74,3.54l-.16.35c.62-.69,1.16-1.34,1.75-1.95a14.49,14.49,0,0,1,1.51-1.42,2,2,0,0,1,2.6-.14,2.33,2.33,0,0,1,.82,1.63,11.61,11.61,0,0,1-.09,3.17c-.11.85-.22,1.7-.27,2.58.22-.31.46-.62.67-1,1.2-1.89,2.28-3.85,3.32-5.84a23.71,23.71,0,0,0,1.12-2.85c.37-.95.62-1.95.92-2.93l.4-1.44-3.57.28a1,1,0,0,1-1.05-.88,1,1,0,0,1,.81-1.12c.36-.06,3.84-.39,4.21-.43a.35.35,0,0,0,.34-.28c.49-1.27,1-2.54,1.49-3.8a4.53,4.53,0,0,1,.65-1,2.18,2.18,0,0,1,3.67.42,2.43,2.43,0,0,1,.14,1.74c-.12.46-.28.91-.42,1.36-.07.19-.13.37-.21.6l1.52-.27c3.71-.62,9.09-1.58,12.75-2.23l2.71-.49c1.13-.19,1.94.05,2.15,1.18a1.92,1.92,0,0,1-1.6,2.28l-2.51.31-.93.1c-.21,0-1.8.19-3.48.39l-6,.67c-2,.23-2.34.23-4.33.46-.44.05-.89.09-1.32.16a.46.46,0,0,0-.31.17c-.2.36-.38.75-.56,1.11a20.82,20.82,0,0,0-1.72,4c-1.39,4-2.8,8.06-3.85,12.2a26.06,26.06,0,0,0-.9,5.11,5.81,5.81,0,0,0,0,.59.66.66,0,0,0,0,.25,1.68,1.68,0,0,0,.34-.23,13.82,13.82,0,0,0,2.43-2.8A58.75,58.75,0,0,0,154.91,38a1.75,1.75,0,0,0,.12-.32A22.24,22.24,0,0,1,157.3,32a7.88,7.88,0,0,1,1.64-2.12,3.33,3.33,0,0,1,3.12-.8,2,2,0,0,1,1.53,2.3.72.72,0,0,0,0,.25,5.58,5.58,0,0,1,.16,1.71,7.45,7.45,0,0,1-.16,1.14s-.06.21,0,.29a.21.21,0,0,0,.08.06.77.77,0,0,0,.72-.08,5.46,5.46,0,0,0,2.06-2.05.43.43,0,0,1,.06-.09c.07-.14.56-2.11.84-3.16a2.12,2.12,0,0,1,.66-1.07,2,2,0,0,1,.76-.44,1.87,1.87,0,0,1,.86-.06,2.1,2.1,0,0,1,1.38.82,2,2,0,0,1,.41,1.3,3,3,0,0,1-.33,1.05c-.58,1.24-1.19,2.45-1.8,3.68-.09.21-.08.22-.08.22l.09-.12.51-.58c.38-.43,1.28-1.39,1.49-1.62l.73-.69a4.79,4.79,0,0,1,1-.72,1.74,1.74,0,0,1,.34-.13,2.25,2.25,0,0,1,1.45.2,2.1,2.1,0,0,1,.81.89c.08.16.41.69.29,2.79,0,.8-.15,1.57-.24,2.74,0,0-.1,1.12-.1,1.12-.05.54-.16,2-.16,2a1.85,1.85,0,0,0,0,.62h0a.8.8,0,0,0,.28-.09l.19-.1c.16-.09.3-.19.45-.29a13.84,13.84,0,0,0,1.25-.92q.35-.28.66-.6c.27-.27.47-.62.72-.91C179.87,37.52,180.67,38,180.62,38.67Zm-80.1-22.11-4,1.08-9,2.45a1.07,1.07,0,0,1-1.39-.63,1.08,1.08,0,0,1,.63-1.4,102.27,102.27,0,0,1,9.44-3.95q2.66-1,5.33-1.9a.45.45,0,0,0,.32-.36c.38-1.39.75-2.77,1.14-4.15a2.28,2.28,0,0,1,4.44.07,2.44,2.44,0,0,1-.12,1.46c-.15.44-.31.88-.49,1.37l1.66-.43a50.65,50.65,0,0,1,7.82-1.49,14.78,14.78,0,0,1,5.22.21,4.69,4.69,0,0,1,3,2,4,4,0,0,1,.55,2.67,11.24,11.24,0,0,1-2.61,5.69,24.64,24.64,0,0,1-3.59,3.63c-1.37,1.13-2.78,2.21-4.17,3.31l-.16.13c.56,0,1.08,0,1.58.11,3.28.48,5.82,2,7.06,5.23a9.07,9.07,0,0,1-.27,6.9,18.81,18.81,0,0,1-5.51,7.16,41.91,41.91,0,0,1-8.71,5.58,81.08,81.08,0,0,1-13.51,5.21c-3.42,1-6.89,1.81-10.36,2.57a1.08,1.08,0,0,1-1.4-1.24,1,1,0,0,1,.8-.82q5-1.08,9.9-2.61a68.54,68.54,0,0,0,13.83-5.88A32.66,32.66,0,0,0,116,42.23a14.51,14.51,0,0,0,3.13-4.95,6,6,0,0,0,.36-3.44,4.14,4.14,0,0,0-3.13-3.11,10.42,10.42,0,0,0-4-.28,25.68,25.68,0,0,0-5,1.2c-.34.1-.68.23-1,.35a1,1,0,0,1-1.31-.52,1.07,1.07,0,0,1,.35-1.39c.45-.33.92-.71,1.38-1,.67-.43.79-.49,1.41-.87a18.66,18.66,0,0,0,3-2.12,45.27,45.27,0,0,0,4.72-4.57,25.39,25.39,0,0,0,3.94-5.64,6.44,6.44,0,0,0,.72-2.18.33.33,0,0,0-.28-.41,8.8,8.8,0,0,0-2.12-.15,59.68,59.68,0,0,0-10.53,1.68l-2.22.51a.47.47,0,0,0-.38.34Q99.28,31.75,93.6,47.82c0,.11-.08.22-.13.33a.68.68,0,0,1-.83.36.63.63,0,0,1-.47-.81c.46-1.74.93-3.48,1.39-5.22l6.87-25.54c0-.1,0-.2.09-.38Z"/></svg>
