<svg xmlns="http://www.w3.org/2000/svg" viewBox="0 0 693 168.79"><title>Ibanez</title><path d="M160.29,166.47a43,43,0,0,1-9.87-7.13l-4.66-4.66-4.13,3.92c-8.94,8.47-2,7.73-75.88,8L0,166.92v-2.1c0-3,2.08-4.69,6.59-5.39a56.84,56.84,0,0,0,5.58-1.13c.92-.29,2.67-.71,3.89-1,4.09-.78,12.38-5.71,15.76-9.37a33.42,33.42,0,0,0,7.69-13.61c.44-1.65.93-3.45,1.09-4s.56-2.13.89-3.5.81-3.29,1.06-4.25l.9-3.5c.25-1,.72-2.88,1-4.25s.79-3.18,1-4c.48-1.73,6.28-23.5,7.06-26.5.28-1.1.7-2.68.92-3.5s.65-2.52,1-3.75l1.1-4.5c.3-1.24.73-2.93,1-3.75,1.65-6.05,7.72-28.89,8.11-30.5.27-1.1.67-2.68.89-3.5,1.43-5.33,1.71-6.77,1.7-9,0-4.37-.6-7-1.58-7-.52,0-.68-.28-.35-.61.85-.85-3.46-5-7.67-7.34a24.12,24.12,0,0,0-8-2.4c-5.57-.51-6.81-1.28-6.44-4,.66-4.8-.61-4.7,56-4.42,51,.24,53.32.33,53.66,2.11.52,2.69-.8,3.58-7.61,5.17S131,12,131,13.1c0,.42-.48.77-1.07.77-2.68,0-10.45,10.31-11.55,15.34-.26,1.19-.66,2.83-.88,3.66s-.61,2.4-.86,3.5-1.87,7.17-3.6,13.5-3.37,12.4-3.64,13.5-.68,2.67-.9,3.5-.67,2.62-1,4-.78,3.17-1,4-.64,2.4-.92,3.5c-.54,2.08-5.33,19.88-6.06,22.5-.24.82-.69,2.62-1,4s-.78,3.17-1,4-.6,2.4-.85,3.5-1.64,6.27-3.1,11.5-2.86,10.28-3.1,11.25l-1,4a61.56,61.56,0,0,0-1.1,6.91c-.43,4-.2,4.82,1.59,5.78,2.54,1.36,7.74,1.63,11,.57,5.39-1.71,7.32-5.73,12.55-26.18,4.71-18.43,5.32-20.8,6-23.33.22-.83.67-2.63,1-4,1.09-4.56,1.52-6.22,3.28-12.5.62-2.2,1.36-5.13,1.64-6.5.52-2.56,7.15-27.88,8.24-31.5.75-2.5,1-11.49.32-13.5s-3.42-4.5-7.73-7.16c-6.06-3.74-4-4.32,16.84-4.64,15.31-.24,20.17,0,22.92,1.16,9.37,3.92,12.55,11.23,9.62,22.14-.29,1.1-.78,3-1.08,4.25s-.8,3.26-1.1,4.5-.77,3.15-1,4.25-.72,3-1,4.32c-1.41,6.79-4.34,18.23-4.9,19.14-1.06,1.71.39,1.19,4.8-1.75,8.35-5.55,13.92-7.2,23-6.78,13.72.63,26.41,11.51,27,23.17.18,3.26.34,3.41,3.13,2.8a10.51,10.51,0,0,0,4.3-2,17.79,17.79,0,0,1,2.59-2.13A35.8,35.8,0,0,0,236,90.87c4.87-6.34,5.33-6.75,11.72-10.6,9.34-5.63,15.6-6.9,33.77-6.9,15.33,0,21.39.75,29.22,3.62,7.43,2.73,11.83,6.06,14.15,10.68s2.11,7.12-2.92,27.2c-2.27,9.07-4.29,17.17-4.49,18-1.16,4.77-1.52,6.21-2.07,8.25-1.89,6.95.76,11.68,6.29,11.19l4.05-.35c1.52-.12,4.17-4.05,4.85-7.22a78.16,78.16,0,0,1,1.92-7.87c.32-1,.79-2.78,1-3.93s.66-2.86.91-3.82.7-2.77,1-4l1.1-4.5c.3-1.24.73-2.93.95-3.75s.63-2.4.9-3.5.73-2.9,1-4,.73-2.9,1-4c1.15-4.58,2.16-8.83,2.62-11,.93-4.37-3.52-9.28-11.38-12.54-4-1.64-5.64-2.88-5.64-4.18,0-1.75,1.31-1.84,24.28-1.75,25.86.1,28.65.56,33.08,5.42,2.27,2.51,3.85,6.4,3.09,7.63-1,1.68.48,1,3.28-1.58,5.92-5.33,8.82-7.5,10-7.5A1.17,1.17,0,0,0,401,78.81c0-.59.45-.78,1-.44s1,.06,1-.61.3-.93.66-.57a1.42,1.42,0,0,0,1.75-.19c2.23-1.73,11.19-3.25,18-3,5.21.15,8.35.85,12,2.66,5.95,3,6.78,3.77,9.3,8.82,1.92,3.83,2.38,11.86,1,16.94-.31,1.1-1.74,6.27-3.19,11.5s-2.85,10.62-3.12,12-.93,4.07-1.47,6a69.71,69.71,0,0,0-1.58,9.2c-.56,5.39-.42,5.88,2.45,8.75s3.44,3,10.87,3c4.31,0,7.26-.31,6.56-.59-1.86-.75-4.48-6.28-5-10.5-.24-2,.55-7.18,1.74-11.5s2.36-8.62,2.59-9.58.61-2.54.86-3.5.72-2.88,1.05-4.25.8-3.29,1.05-4.25.65-2.54.9-3.5.67-2.72.93-3.91c.95-4.33,4.4-9.78,9.6-15.14S488.5,74.8,498.89,73.15c9.43-1.5,30.22-.88,41.45,1.25,7.81,1.48,18.78,9.44,19.63,14.24,1.17,6.66.11,18.33-2.38,26l-2.68,8.25H526.52c-17.79,0-28.63.37-29,1a13.44,13.44,0,0,0-1.1,3.25c-.28,1.24-.7,3-.95,4-3.18,12.31-3.47,15.28-1.73,17.76,1.34,1.9,2.23,2.15,6.43,1.74,5.21-.5,6.12-1.23,16.85-13.58,2.47-2.85,5.06-5.17,5.75-5.17s1.25-.38,1.25-.84c0-1.3.72-1.35,33-2l30.55-.64,2.45-2.6c1.35-1.42,7.4-7.63,13.45-13.79l11-11.19-11,.16c-6.84.1-12.85.75-15.91,1.73-5.72,1.84-12.44,7.83-15.4,13.75-2.7,5.37-5,7.35-6.25,5.37s-1.18-3.52,1.64-13.93c1.42-5.23,2.73-10.24,2.92-11.14,1.31-6.27,8.7-15.4,15.11-18.67,4-2,5.67-2.11,55.75-2.47,28.4-.2,51.64-.09,51.64.26s-15.19,15.8-33.75,34.33l-33.75,33.7,16-.27c14.84-.25,16.4-.46,21.5-2.87A33.12,33.12,0,0,0,677.42,128c2.79-4.42,7.43-15.06,7.9-18.11.42-2.76,2.22-4.41,4-3.7,1.46.56,1.5,2.38.18,8.65-.28,1.35-.79,4.26-1.12,6.47a26.14,26.14,0,0,1-1,4.61,34.41,34.41,0,0,0-1,5.52,36.11,36.11,0,0,1-1,5.57,24.16,24.16,0,0,0-1,4.38c-1.08,6.81-1.35,7.72-3.5,11.85-2.57,4.93-5.64,7.9-11.25,10.9-4.14,2.21-4.66,2.24-52.68,2.53-26.68.16-53,.16-58.5,0l-10-.29,13-12.74,13-12.74h-8.3c-10.43,0-12.58,1.06-19.62,9.88a85.65,85.65,0,0,1-9.28,10c-7.32,6.06-7.66,6.09-73.33,6.09-43.17,0-60.61-.33-63.07-1.18-5.57-1.93-9.37-6.87-9.11-11.82a109,109,0,0,1,2.71-13c.66-2.47,1.57-6.34,2.11-9,.27-1.38,1.6-6.86,2.95-12.19a91.63,91.63,0,0,0,2.44-12c0-6-6.93-9.43-12.87-6.36-4.92,2.54-5.56,4-10.71,24.07-.29,1.1-.72,2.78-1,3.75s-.66,2.68-.91,3.82-.72,2.91-1,3.93-.74,2.66-.94,3.67c-1.85,9.61-4.55,15.58-8.87,19.62-6.49,6.06-6.78,6.1-47.19,6.49l-37,.35-3.5-2.34a17.15,17.15,0,0,1-5-5.37l-1.53-3-2.8,2.65a63.15,63.15,0,0,1-8.43,6c-5.26,3.2-6.27,3.44-15.8,3.75-11.07.37-13.3-.27-19.06-5.48s-7.79-12.15-6.14-20.85c.75-4,2.89-8.5,4-8.5.49,0,.67-.37.4-.81s.67-1.68,2.1-2.75a46.92,46.92,0,0,0,3.87-3.19,4.26,4.26,0,0,1,2.34-1.25c.59,0,1.07-.34,1.07-.76,0-.81,10.27-5,14-5.74,1.21-.23,2.95-.65,3.87-.92s2.79-.7,4.17-.94c12.15-2.13,18.65-4.38,23.65-8.19,6.68-5.1,8.29-13.5,2.85-14.87-3.07-.77-6.77,1-12.06,5.88-5.55,5.09-11.37,9-15.34,10.38-2,.67-9.62,1.16-18.25,1.16-13.45,0-14.86.16-14.93,1.75a24.76,24.76,0,0,1-.38,3.25c-.18.82-.56,2.85-.87,4.5s-.83,4.12-1.16,5.5l-1,4c-2.26,9.45-8.48,20.15-16,27.5-8.45,8.25-12.22,9.79-25.05,10.22C166.43,168.92,165.06,168.74,160.29,166.47Zm102.88-16.53c2.15-.24,7.35-6.16,10-11.35,3-5.87,3.44-7.26,4.5-13.08l.51-2.86-3.32,2.47a102.2,102.2,0,0,1-10.53,6.21c-7.76,4-10.71,7.3-10.81,12-.09,3.76,3.65,7.65,6.8,7.06C261.5,150.2,262.8,150,263.17,149.94Zm-97-7.31a41.68,41.68,0,0,0,9.42-18.26c1.37-6,1.55-7.46,1.53-12.5,0-8.63-1.68-12.59-5.61-13.58-8.93-2.24-20.7,18.69-20.13,35.82.3,9.09.71,10.64,3.4,12.82C157.93,149.44,160.78,148.36,166.22,142.63Zm352.33-38.51c1.32-8.07,1.22-9.48-.79-11.5-1.52-1.51-2.72-1.8-5.47-1.28-5.91,1.11-9.11,5.52-10.69,14.78l-.47,2.75h16.64Z"/></svg>
