<svg xmlns="http://www.w3.org/2000/svg" viewBox="0 0 293.87 79.8"><title>Jackson</title><path d="M69.07.18c-2.79-.22-12.53-.69-15.21,2-3.17,3.15-5.12,7.31-6.71,13.29S36.73,48,34.2,54.64c-3.31,8.68-7.68,15.37-9.45,17s-7.19,6.89-11.76.5c-4.13-5.78-2.38-11.7-.59-17.3C14.12,49.51,20.8,43.2,19,49s-3,6.65-1.52,11.28c.78,2.48,3,3.92,4.61,4.81s1.21-.25,2.13-2.69c.85-2.27,3.41-5,3.84-6.3s1.7-6.61-.61-10.17c-3-4.61-7.33-6.22-13-5.47C6.2,41.58,1.61,48.29.29,56.55c-1.86,11.63,5.36,22.06,19.32,23.2A20.21,20.21,0,0,0,31.09,77c2-1.4,9.66-4.46,15.33-18.37,5.43-13.32,8-19.67,9.73-24.07,3-7.55,9.06-24.84,9.52-26.14A48.71,48.71,0,0,1,69.49.76C69.59.4,69.34.22,69.07.18Zm-45.59,57a7.89,7.89,0,0,0,2.29-4.49c.06-.51.16-1.18.51-.53a4.58,4.58,0,0,1,.36,3c-.19,1.14-1.19,2.12-2.26,4a19,19,0,0,0-1.58,3.76c-.43,1.1-.86-1-.83-1.64A9,9,0,0,1,23.48,57.2Zm-14.55,10c.16,1.11.37,2.13-.24,1.77s-1-1.58-1.52-3.6c-.7-2.69-.38-7.3,1.36-11.44,1.37-3.25,3.74-6.32,5.23-7.36,1.3-.92,3-1.7,3.3-1.16-.18.71-1.29,1.07-2.71,2.89-2.2,2.82-3.2,4.92-4.57,9.34A23.23,23.23,0,0,0,8.93,67.21ZM65.12,6C63.92,9.71,62,14.8,60.85,17.84c-.88,2.44-6.91,18-8.25,21.74S44.49,60,42.17,63.51,36.61,71.74,34,73s2.37-4.51,3.34-5.92c4.36-6.41,6.13-11.07,10.1-20.7,4.11-10,7.48-19.18,8.78-23.1s4.32-13.07,6.36-17.39,4.4-5,4.41-4S66,3.18,65.12,6Z"/><path d="M293.27,49.88a46.87,46.87,0,0,0-4.61-6.6c-.48-.47-1.9-2.1-2.23.31-.19,1.31-1.33,4-4.52,7.16-6.12,6.08-10.28,9.27-18.16,12.94A60.83,60.83,0,0,1,250.91,68c-1.75.28-4.46.1-5.4-1.64s-.37-4.84.49-6.59c2.81-5.68,3.65-8.28,3.75-10.56.06-1.39,0-6.29-3.92-8-3.49-1.56-7-1.67-9.83.34a42.8,42.8,0,0,1-4.67,2.87,5.2,5.2,0,0,0-3.25-2.91,7.4,7.4,0,0,0-6,.26c-2.35,1-7.45,4-9.32,5.06l-.63.32a13.74,13.74,0,0,0-1.81-2.91,10.37,10.37,0,0,0-8-3.54,6.28,6.28,0,0,0-1.56.06,8.57,8.57,0,0,0-2.62.52s-3.75.11-9.33,5.56-6.46,5.32-8.29,6.51A29.76,29.76,0,0,1,177.36,55c-1.53-3.29-3.91-6.16-4.35-7.32a30,30,0,0,1-1.63-4.19c-.46-2,.86-3.62-1.61-3.86-1.71-.17-4.43-1-5.49-.66s-3.62,1.22-3.24,3.9.64,2.72.64,2.72l.36.64C160,49.11,154.38,56.74,153.61,58a65.45,65.45,0,0,1-6.87,8.17c-1.4,1.19-3.23,3.61-5.17,3.75-1.54.12-3-.29-4.73-2.37s-2.73-3.43-3.15-6.11a5.79,5.79,0,0,1,1-3.63S153,46.16,153.64,45.66s3.83-2.31,2.38-3.55A21.79,21.79,0,0,0,150.87,39c-1.3-.51-2.45-.77-4.77.77-.76.51-7.53,4.59-7.53,4.59l-4,2.49s15.11-31.63,16-33.17c.68-1.75,1.55-1.67,1.69-2.53s-4.09-2-6.11-2.05-4.73.14-6.48,2.89a84.17,84.17,0,0,0-4.9,9.28c-.36,1-7.83,16.46-8.7,18.82a177,177,0,0,1-9,16.75,36.89,36.89,0,0,1-10.23,9.8c-4,2.66-7.83,4-9.09,3.16s-3.46-1.69-1.3-7.68a37.24,37.24,0,0,1,6-10.79c1-1.24,3.53-4.34,3.06-1.32-1.18,4.37-2.18,5.87-1,9.26A6.43,6.43,0,0,0,108,62.64c1.19.62,1-.13,1.61-2S112.17,56,112.45,55s.84-5.35-1.35-8.16-6.22-3.78-9.63-3.49c-3.75.31-7.44,2.8-10.8,6.5-3.67,4.05-7.17,13.59-6.17,18,.17.74-2.93,3-3.47,3.19s-2.41.55-2.11-1.93.9-3.79,2.33-7.26c1.2-2.89,4.64-9.76,5.23-11s1.92-3.54,2.29-4.25c.58-1.12-.24-1.85-1-2.48s-5-.93-5.85-.66-2-.08-3.5,2.54a10.87,10.87,0,0,1-1.74,2.31A10.17,10.17,0,0,0,68.36,44a16.26,16.26,0,0,0-9.68,2.48c-3.07,1.78-5.83,5.17-8,9.51-2.41,4.9-3.21,9.12-2.57,13.77.77,5.68,5,6.63,6.08,7.11s4.36.34,7.75-1.32a29.85,29.85,0,0,0,5.35-3.18c.57-.42.75.26,1.13,1.11,1,2.3,3.76,3.6,6,4s6.48.32,8.79-1.1a15.53,15.53,0,0,0,3.86-3.33,12.32,12.32,0,0,0,10.33,4.1,15.09,15.09,0,0,0,8.92-3.44c1.46-1,4.71-3.7,5.25-4,.79-.4-1.58,4.14-1.6,4.72s.57,2,4.85,2.14,4.69-.32,5.23-.54,1.5-2.46,2.08-3.58,4.06-9.25,4.06-9.25a29.4,29.4,0,0,0,4.4,7.26c2.64,2.94,3.69,4.34,7,5.41,3.75,1.23,5.84,1.19,11-1.26a24.34,24.34,0,0,0,5.25-3.26l.08-.11c.17.21.34.41.52.6a9.6,9.6,0,0,0,5.65,3.19c3.66.93,7.84,1.27,9.83.78s7.74-3.82,9-12.54c0,0,0-.18,0-.47A30.64,30.64,0,0,0,182.58,61s-.7,8.26,4.27,11.39a14.23,14.23,0,0,0,10,2.42,17.44,17.44,0,0,0,8.38-3.39c2.56-1.81,4.42-4.5,6-8.1a22.57,22.57,0,0,0,2.14-11.85l.27-.12a45.76,45.76,0,0,1,6.47-2.83c2.37-.68.82,1.59.66,2.14s-3.13,7.1-4,9.29a67.91,67.91,0,0,1-3.7,7.75c-2.31,3.36-2.88,4.08-2.88,4.08a1.1,1.1,0,0,0,0,2c1.69,1.17,5.88,1.37,7.16,1.57s4.48-.83,5.27-2.62,3.63-8.58,5-11.24a59.94,59.94,0,0,1,6.53-10.89,21.27,21.27,0,0,1,5.11-4.16c.69-.35,2.74-.78,1.56,2.26s-3.94,7.65-4.56,9-2.9,7.46-1.13,11,7.4,4.7,11.27,4.91a68.49,68.49,0,0,0,12.2-.79c8.88-1.38,14.33-3.53,21.86-7.29a54,54,0,0,0,9.73-6.39A28.38,28.38,0,0,0,293.56,55,7.84,7.84,0,0,0,293.27,49.88ZM108.45,55.32a7.72,7.72,0,0,0,1.86-4.62c0-.51.06-1.18.47-.57a4.56,4.56,0,0,1,.61,2.94c-.08,1.14-1,2.19-1.89,4.11A19.47,19.47,0,0,0,108.27,61c-.33,1.13-.94-.93-1-1.54A8.9,8.9,0,0,1,108.45,55.32Zm-50,14.54s-1.83-5,2.05-13c2.06-4.21,2.75-4.63,5-7.18,1.54-1.72,5.46-3.5,3.15-1-1.75,1.27-4,5.36-6.08,9.57-3.88,8-3.21,12.37-3.21,12.37C58.82,71.63,58.41,69.86,58.41,69.86Zm11.32-5.62a22.14,22.14,0,0,1-6.14,5.38,13.93,13.93,0,0,1-2.94,1.14S60,66.38,63.92,58.4c2-4.21,4.78-8.29,6.53-9.56a3,3,0,0,1,1.14-.65C75.81,54.25,71.14,62.36,69.73,64.24Zm7.81,6.42c.11,1.13-1-.58-1-.58-1.26-2.47.59-5.88,1.9-9.4,1.1-2.92,4-9,4.52-10.19s1.8-3.12,2.14-3.84c0,0,0-1.08,1.54-.84s1.13,0,.84,1c-.37.71-1.73,2.8-2.32,4s-4,8.09-5.23,11C78.46,65.23,77.35,68.89,77.54,70.66Zm4.15,5.28c-1,.17-.27-1,1.17-2.21a14.87,14.87,0,0,0,2.53-2.63,7.67,7.67,0,0,0,1,1.46S83.35,75.62,81.69,75.94ZM93.14,64.19A20.47,20.47,0,0,1,95.52,56a20.48,20.48,0,0,1,4.55-6.11c.81-.78,3.73-2,2.4-.42a34.32,34.32,0,0,0-5.33,7.93c-1.67,3.53-3,8-2.82,9.6C93.6,67.34,93.07,65.45,93.14,64.19Zm28.19,6.25c-1.39,2.82-2,4.78-2.48,4.77s-.77-.94-.53-2.61a26.82,26.82,0,0,1,2.11-5.33l2.19-4.66s1.69-4.19,2-3.34a14.17,14.17,0,0,1,.35,3.12S122.84,67.34,121.33,70.44ZM130.4,50.2c-.94.89-2.31,1.8-1.15-.52,1-2,1.48-3.26,1.48-3.26.43-.57,11.89-24.45,12.17-25.18s3.67-7.85,4.21-8.7a1.71,1.71,0,0,1,1.66-1c.62,0,1.82-.14,1.19.77a18.48,18.48,0,0,0-1.4,2.65L132.24,47.92A14.34,14.34,0,0,1,130.4,50.2ZM132.14,61s-.9-.36-1.29-2.93,2.56-3.81,2.56-3.81c1.75-1,17.88-12,19.49-11.88,1.8.12.85,1.22-.32,1.88-.74.41-14.19,8.39-19.27,12.6A3.68,3.68,0,0,0,132.14,61ZM169.37,41.1c1.12,0,.3.28.73,1.9s-.07,1.17.6,3c2.15,5.87,5.46,8.73,5,9.61-.31.58-.74.3-1.58-.19a25.69,25.69,0,0,1-4.56-7.23C168.76,46.16,167.65,41.08,169.37,41.1Zm-8.84,17.06c.84-1.51,1.37-2.32,2.11-3.87.55-1.16.83-2.27,1.28-3s1.36.73.27,3.13a37,37,0,0,1-3.66,6.38c-.22.33-1.76,1-2.11.46S159.6,59.85,160.53,58.16Zm-9.94,14.13c-1,.58-2.45,1.37-2.87.46.14-.92,1.33-.85,3.81-4.26a.41.41,0,0,1,.61-.15,9.6,9.6,0,0,0,.93,1.75A7.4,7.4,0,0,1,150.59,72.29Zm10.57-1c-.77.3-2.42,0-3.84-2.29a2.38,2.38,0,0,1-.13-2.28c.33-.77.61-1.55,3.57-1.69,1.4-.08,1.79-.13,3.23-.17,1.28,0,3.18-.38,1.9.8,0,0-.84.64-3.72.6-1.49,0-3.58.22-3.08,1.95C159.59,70.62,162.36,70.84,161.16,71.32Zm2.54-1.52c-2.17.36-2.95-.23-3.62-1.28s1.13-1.37,2.25-1.32a17.38,17.38,0,0,0,5.09-.45A5,5,0,0,1,163.7,69.8Zm-2.12-8.52.63-.9a39.85,39.85,0,0,0,3.84-6.9s.13-.19.29-.49a27.85,27.85,0,0,1,1.56,2.34,7.83,7.83,0,0,1,.85,3.89A32.59,32.59,0,0,1,161.58,61.28Zm21.48-2.42a44.8,44.8,0,0,1-4.92,2.47,1.31,1.31,0,0,0-.52.91c-1.28,8.73-5.32,12.27-9,12.55-.46,0,3.13-1.64,5.12-6.2a25,25,0,0,0,1.47-6c.16-1-.28-1.06,1.7-2.5s6-3,6.47-2.85C184.21,57.45,183.06,58.86,183.06,58.86Zm25.29-15.15a8.36,8.36,0,0,1,2.4,3.37,5.73,5.73,0,0,1-1.23.66c-.3.08-.4-1-.67-1.55a10.93,10.93,0,0,0-.63-1.33C207.67,44,207,42.47,208.35,43.71Zm-9.71,2.08,0,0a2.58,2.58,0,0,1,3.94-.26l-.06,0c.93.85,1.46,2.45,1.52,4.6-2.12,0-5.08-.65-5.64-2.82A1.76,1.76,0,0,1,198.64,45.79ZM189,62.64a19.43,19.43,0,0,1,1.28-8.07,21.57,21.57,0,0,1,3.86-6.39c.31-.36.43-.81.81-.7s.5,1.87.5,1.87a28.79,28.79,0,0,0-3.84,7A23.18,23.18,0,0,0,190,64.85C189.5,66.18,189,64.12,189,62.64Zm4,8c-2.55-.92-2.55-7.33,0-14.31a32.56,32.56,0,0,1,3.1-6.34c1.13,1.84,3.5,3.38,7.71,3.85a33.58,33.58,0,0,1-1.59,5.85C199.66,66.65,195.53,71.55,193,70.62Zm19.18-17.76a22.62,22.62,0,0,1-2.3,9.35c-1.78,3.8-4.2,7.1-6.59,8.49-1.61.64-.15-.75,1-2.19a36.66,36.66,0,0,0,5.06-10.28,30.08,30.08,0,0,0,1-4.85,12.81,12.81,0,0,0,1.81-.86C212.26,52.43,212.17,52.86,212.17,52.86Zm23.52-5.8a25.75,25.75,0,0,0-3.93,3.87,62.94,62.94,0,0,0-5.51,9.46c-2.09,4.31-4,9.57-5,11.24A2.58,2.58,0,0,1,218.5,73c-.42-.21.38-1.64,1.34-3.65,3.72-7.86,7.57-15.79,11.1-19.72a11.84,11.84,0,0,1,4.33-3.22C236.45,46,235.69,47.06,235.69,47.06Zm7.72,19.86c-2.51-2.45-1-7.53,1.05-11.57,1.83-3.65,2.25-3.57,2.88-6.31.52-2.24,1,.2,1,.2,0,2.89-.6,3.43-3.28,9.31a12,12,0,0,0-1.28,6.13C244,66.09,244.27,67.76,243.41,66.92Zm48.78-13a18,18,0,0,1-3.37,4.11,52.53,52.53,0,0,1-8,5.71c-3.62,2-5.68,2.87-6.32,2.88-.29,0-1.75-.57-.72-1A41.68,41.68,0,0,0,286,57.54,55.14,55.14,0,0,0,290.42,52C291.14,50.52,292.53,53.09,292.19,53.94Z"/></svg>
