<svg xmlns="http://www.w3.org/2000/svg" viewBox="0 0 214.93 168.88"><title>LTD</title><path d="M70.74,0C51.18,5.16,36.87,10.32,21.37,15.48,10.57,66.3,5.48,106.56.05,147.44c-1,27.93,14.54,20.85,19.78,20.09,21.78-4.38,40.32-14.83,57.35-23.17C81,146,91.77,155.1,91.77,155.1c5.74,4.48,20.09,2.41,23.56-.55,9.38-6.58,14.25-15.39,23.15-22.45,9.1,10.4,19.55,18.35,26.29,17.2,6.88.13,14.37-4.63,21.33-9,15.62-14,24.35-31,28.12-50.38,1.78-14.15.05-27.21-3.51-39.76-6.57-19.36-16.48-30.87-25.63-43.48,4.24,14.72,6.37,30.22,7.19,46.56,1.82,29.46-3.12,48.54-12.66,65.42-10.43,12.83-14.7,11.44-18.24,8.35-6.35-4.35-5.56-10.92-3.39-17.93C163.59,94.23,172.71,85,184.55,72c-11-1.11-23.92,4.2-34,13-11.43,10.89-14.38,16-15.89,22.2-1.33,4.3-.95,10.17.3,14.27-7.37,6.37-14.08,13.5-20.3,17.27-4.86,2.54-10.09,6.32-10.78-5.21,2.09-19.68,3.22-39.36,8.35-59,7.82,0,10.8-1.1,25.34.31-.64-2.83.29-7.75,1.23-12.68-9.81,3.22-19.88,5.78-25.42,5.26a263.16,263.16,0,0,0,8-41.7c-14.29,10-24,13.3-33.58,17.59,1.11,10.16,1.19,20-.93,29.05-5.91,1.09-13,4-17,2.17-1,8.3-1.73,12.29-3.21,17,8.63-4.43,16-7.88,19.29-8-.57,13-5.82,31-9.37,47-12,4.51-26.67,10.61-36.76,11.21-4.93-.92-12.64-.39-14.14-10,.82-13.17,4.83-64.93,18.85-93.33C50.45,24.37,60.82,13,70.74,0Z"/></svg>
