<svg xmlns="http://www.w3.org/2000/svg" viewBox="0 0 376.7 162.61"><title>PRS</title><path d="M123.3,0h78.9c25.4,1.2,36.9,8.4,38.7,9.3,13.7,7.1,18.2,23.4,18.4,28.8.4,8.7-1.7,19.9-7.4,27-9.6,12.2-27.7,16.5-27.7,16.5l34.3,52.6h.6V106h7.4c3.5,19.2,16.3,35,20.7,38.2,14.2,10.2,23.8,10.3,30.1,10.5,16.8.5,23.9-7.3,28-15,1.7-3.4,3-11.6,1.2-17.8-2.3-8.2-13.8-14.5-16.7-15.6-1.8-.7-33.4-15.5-37.5-17.4-15.9-7.3-25.1-21.1-25.6-22.1-5.6-10.4-5.4-22.2-5.2-26.6.7-15.3,11-24.5,13.8-27.2C288.9.12,312.8-.38,320.5.12c17.8,1.4,29.9,7.2,34.6,7.4,5.2.2,7.6-7.5,7.6-7.5h7.5v49.7h-6.8s-5.1-12.9-8-17.4c-13.2-20.2-26.1-22.8-33.7-24-5.3-.9-17.4-.6-23.1,3a21.47,21.47,0,0,0-10.2,21.3c2.1,12.8,16.3,18.5,18.8,19.6s38.3,17.7,41.5,19.5c19.5,10.6,24.7,25.2,24.7,25.2a53.75,53.75,0,0,1,3.2,21.6c-1.4,18.4-17.6,31.8-23.2,35.1-16.8,9.8-38.4,9.1-43.1,8.9-19.1-.9-32.1-6.7-32.1-6.7v4H232l-46.3-74.5h-6v48.8c0,21.2,19.8,19.9,19.8,19.9v5.8H123.3V154c21.6.8,19.9-20.5,19.9-20.5V22.92c-1.1-19.1-19.9-17.3-19.9-17.3Zm56.5,78s12.5-.7,15.5-1.1c11.1-1.8,17.9-7.6,20.1-10.6s4.6-8.6,5.2-17a119.58,119.58,0,0,0,0-15.5,29.2,29.2,0,0,0-11.2-21.5c-7-5.1-16.5-3.8-18.3-3.9-11.4-.4-11.4,7.9-11.4,7.9Z"/><path d="M0,0H78.4c21.1,0,34,5.9,35.4,6.5,9,3.9,13.9,8.5,17,13,6.7,9.7,7,22,6.9,25a46,46,0,0,1-1.8,12,41.28,41.28,0,0,1-8.4,13.9c-5.3,5.7-13.9,10.5-17.3,11.9-15.7,6.5-34,5.7-34,5.7H58.1v51.7c1.5,14.9,20.6,14.5,20.6,14.5V160H0v-5.8c19.3,0,19.8-15.2,19.8-15.2l.1-116.8v-.4C19.3,5.22,0,5.92,0,5.92Zm57.9,79.5s11.3-.6,14.4-1.1c11.1-1.8,16.8-6.3,19-9.3s4.8-10.9,5.3-19.3a118.13,118.13,0,0,0,.2-14.3c-.7-12.6-7.2-20.4-9.5-22.1-7-5.1-16.1-5.1-17.9-5.1C58,7.92,58,16.22,58,16.22v63.3Z"/></svg>
