<svg xmlns="http://www.w3.org/2000/svg" viewBox="0 0 269.12 60.24"><title>Washburn</title><path d="M54.77,13.62c2.34-5,4-7.45,10-7.1-5.81,13.84-15,35.91-27.11,45.59-1.89,1.51-7.21,5-10.76,3.36-6.89-3.26-1.62-16-1.2-23.54-5.93,4.44-10.58,11.88-14.75,18.69-1.51,2.47-2.35,5.33-4,7.1-.68.73-4.09,3.4-6,2.24-1.11-.68-1.07-5.73-.8-8.22C1.27,41.62,7.21,29.66,11.72,21.47c-2.86-.54-8.15,2.5-11.56.37,1.45-4.94,7-3.76,12-6,3.79-1.69,11.28-9.58,13.16-4.48.59,1.61-4,6.65-4.79,7.85-5.29,7.8-9.94,15.68-12.75,25,6-6,7.28-11.45,14-16.81,2.1-1.69,9.36-6.61,11.56-4.11s-1.58,8.82-2.39,12.33c-.68,2.91-2.71,12.09-.8,13.08s7.71-6.32,9.17-8.22C45.72,32,49.89,24,54.77,13.62Z"/><path d="M260.46,31.93c1,8.89-11.41,12.1-19.93,12.71-9.05.64-17.15-2.38-15.15-10.84.44-1.86,9.77-12.08,1.6-9.34-.91.3-1.46.47-1.77.56.07-.17-.9.24,0,0a5.75,5.75,0,0,1-1.42.93,21,21,0,0,0-5.18,4.11c-2.55,2.76-5.32,11.86-10.77,10.84-1.13-.21-1.94-1.81-2.39-1.87-3.56-.48-8,3.2-10.36-.37-3-4.5,3.33-9.66,4.78-13.46-7-2.59-7.61,6.87-13.15,11.59-2.48,2.11-12.44,6-13.95-.37-3.64,2.44-9.5,5.68-14,2.61-4.3-3-2.08-9.57,0-13.45-4,.26-4.05,4.24-5.58,6.35-2.88,4-10.47,11.74-17.94,7.48-1.12-.65-1.81-3.09-2.79-3.37a18.87,18.87,0,0,0-4.38,1.12c-1,.62-.65,2.28-1.59,3-5.76,4.3-5.68-3.21-4.39-7.1.49-1.47,2.43-5.81,2-6.35-1.11-1.37-3.85.05-5.18.75-2.35,1.24-3.83,3.78-5.58,6.35-1.86,2.75-3,6.07-4.38,7.1-5.16,3.9-8.11-.12-5.19-6-3.69,2.34-2.24,5.88-6,8.22-3,1.9-8,2.39-11.95,1.12-1.28-.4-3.26-2.62-4.39-2.61-2,0-4.34,3.82-7.17,3.74s-4.25-2.5-4.79-4.12c-2.32,3.46-18.45,13-18.73,3-.2-6.85,8.61-18.07,17.14-21.3,1.41-.53,3.12-.37,4.38-.75,2.74-.8,6.87-2.84,8,1.13,1.56,5.54-6.11,10.93-6,15.69,5.58-2.64,9.5-9.72,12.75-16.07,1.83-3.57,1.82-7.9,8.37-6.72,1,4.5,4.34,17.57,9.57,12.33,1.74-1.75,3-6.72,4.78-10.84,2.27-5.19,5.3-11.7,9.57-14.95,2.59-2,8.38-3.6,9.57.75.89,3.28-2.16,8.59-3.19,10.46-1.66,3-3.89,5.29-5.58,7.85,7.36-4.24,12.43,3.17,9.17,10.09,5.32-1.27,5.3-11,8.37-17.19,2.09-4.21,9-16.29,16.34-14.57,2.19.51,3.86,3.62,3.59,6.72-.42,4.71-4.44,9.92-8.37,14.58-2.85,3.37-11.45,10.2-10.37,12.7,2.29,5.29,10.56-7.24,11.56-9,1.48-2.54,2.28-6.43,6.38-6,1.19.13,2.07,1.52,2.79,1.49,1.85-.07,6.62-4.72,8.37-1.12.77,1.57-7.65,10-5.58,13.83,2.3,4.21,8.66-3.1,10.37-5.24,1-1.32,2.33-3.36,3.58-5.23.55-.81,2.05-4.35,3.59-4.86.69-.22,4.6.13,5.18,1.5.87,2-9.64,13.34-6.38,14.95,2.93,1.43,8.16-7.63,8.77-8.6,2.1-3.28,3-10,8-9,1.25.25,1.16,2.18,2.39,2.62,3.91,1.39,11.47-4.54,11.56,1.87,0,1.24-14.85,17.15-4.39,13.08,2.68-1,4.41-3.91,6.78-7.1,2.08-2.81,4.44-7.63,5.58-8.22,1.6-.84,6.38-1,5.58,1.86,2.29-.32,12.93-6.1,16.35-2.24,2,2.28-2.32,6.7-3.59,8.6-4.12,6.15-6.95,13.57,6,12.33C249.84,39,254.78,34.18,260.46,31.93ZM147.25,16.24c.95-1.19,7.48-8,4.39-10.09a4,4,0,0,0-1.2,0C145.53,8.1,142.05,18,140.08,23.71,142.78,22.76,144.52,19.65,147.25,16.24Zm-33.88,8.22c3.35-5.84,9-11.44,10-18.31C118.33,8.93,114.67,18.2,113.37,24.46ZM87.46,39.41c2.74,2,8.72-.21,8-2.62A20,20,0,0,1,87.46,39.41Zm-.8-4.49c8.51,1.39,10.22-5.91,4.79-9C90.23,29.3,88.19,31.87,86.66,34.92Zm-24.31,6c4.31-3.88,7.48-7.68,8.77-13.08A13.68,13.68,0,0,0,62,32.68c-1.27,1.41-6.32,9.12-4.39,10.46C59,44.11,61.74,41.45,62.35,40.9Z"/><path d="M268.43,43.89c4,6.06-10.77,3.41-4.38-.37C265.49,42.66,267.74,42.82,268.43,43.89Z"/></svg>
