<svg xmlns="http://www.w3.org/2000/svg" viewBox="0 0 799.67 174.12"><title>Yamaha</title><path id="path4" d="M87.05,0a87.06,87.06,0,1,0,87.06,87.06A87.05,87.05,0,0,0,87.05,0Zm0,164.29a77.24,77.24,0,1,1,77.24-77.23A77.23,77.23,0,0,1,87.05,164.29Z"/><path id="path6" d="M150.33,122.12l-12.64-14.76a2.09,2.09,0,0,0-.56-.46,2.15,2.15,0,0,0-2-.07h0a6.74,6.74,0,0,1-9.5-4.84h0a17,17,0,0,0-8.26-11.66l-5.66-3.27,32.18-18.58-4-6.9L103.72,82.46,99.37,80v-5l36.16-20.88-4-6.9L99.37,65.73V59.2a17.05,17.05,0,0,0-6-13h0A6.74,6.74,0,0,1,94,35.56a2.15,2.15,0,0,0,1-1.8,2.06,2.06,0,0,0-.12-.7L88.33,14.73a1.35,1.35,0,0,0-2.55,0L79.33,33.06a2.06,2.06,0,0,0-.12.7,2.18,2.18,0,0,0,1,1.8h0a6.74,6.74,0,0,1,.56,10.66,17,17,0,0,0-6,13v6.53L42.57,47.15l-4,6.9L74.75,74.93v5L70.4,82.46,34.24,61.58l-4,6.9L62.44,87.06l-5.66,3.27A17,17,0,0,0,48.52,102h0a6.74,6.74,0,0,1-9.5,4.84h0a2.18,2.18,0,0,0-2,.07,1.94,1.94,0,0,0-.56.46L23.79,122.11a1.35,1.35,0,0,0,1.27,2.22l19.1-3.58a2.36,2.36,0,0,0,.67-.25,2.2,2.2,0,0,0,1.09-1.72A6.73,6.73,0,0,1,54.86,113a17,17,0,0,0,14.23-1.33l5.66-3.26v37.16h8V103.78l4.35-2.51,4.34,2.51v41.76h8V108.38l5.66,3.26A17,17,0,0,0,119.27,113a6.73,6.73,0,0,1,8.94,5.81,2.19,2.19,0,0,0,1.08,1.73,2.36,2.36,0,0,0,.67.25l19.1,3.57a1.34,1.34,0,0,0,1.27-2.2ZM74.74,99.18l-10.62,6.13a4.35,4.35,0,0,1-4.34-7.53L70.4,91.65l4.35,2.51v5Zm8-41.11a4.35,4.35,0,1,1,8.69,0V70.33l-4.34,2.51-4.35-2.51Zm9.35,31.87-5,2.89-5-2.89V84.17l5-2.89,5,2.89Zm23.87,13.79a4.38,4.38,0,0,1-6,1.59L99.37,99.18v-5l4.34-2.51,10.62,6.13A4.37,4.37,0,0,1,115.93,103.73Z"/><polygon id="polygon10" points="666.68 69.37 637.63 69.37 637.63 11.29 611.08 11.29 611.08 162.83 637.63 162.83 637.63 96.28 666.68 96.28 666.68 162.83 693.8 162.83 693.8 11.29 666.68 11.29 666.68 69.37"/><polygon id="polygon12" points="193.49 11.29 222.94 104.21 222.94 162.83 252.43 162.83 252.43 101.2 282.96 11.29 258.15 11.29 238.1 70.33 219.96 11.29 193.49 11.29"/><polygon id="polygon14" points="449.46 11.29 436.75 83.37 422 11.29 380.57 11.29 380.57 162.83 404.33 162.83 404.33 48.59 424.61 147.9 446.8 147.9 464.78 46.98 464.78 162.83 492.64 162.83 492.64 11.29 449.46 11.29"/><path id="path16" d="M774.67,11.28h-41l-27.7,151.55h24.56l5.87-35.27h30.55l5.7,35.27h27.06Zm-34.09,91,11.29-67.77,11,67.77Z"/><path id="path18" d="M532.47,11.28l-27.7,151.55h24.56l5.88-35.27h30.55l5.7,35.27h27l-25-151.55Zm6.95,91,11.29-67.77,11,67.77Z"/><path id="path20" d="M302,11.28l-27.7,151.55h24.56l5.88-35.27h30.55l5.7,35.27H368L343,11.28Zm6.95,91,11.29-67.77,11,67.77Z"/></svg>
